<svg width="345" height="345" viewBox="0 0 345 345" fill="none" xmlns="http://www.w3.org/2000/svg">
<circle cx="172.122" cy="172.123" r="140.537" transform="rotate(-15 172.122 172.123)" fill="#550CF5"/>
<path fill-rule="evenodd" clip-rule="evenodd" d="M248.684 198.528C248.804 197.616 248.907 196.702 248.992 195.787L117.309 231.071C117.841 231.821 118.387 232.561 118.947 233.291C124.758 240.864 132.004 247.219 140.271 251.992C148.538 256.764 157.664 259.862 167.128 261.108C176.592 262.354 186.209 261.724 195.429 259.253C204.65 256.783 213.293 252.52 220.866 246.709C228.44 240.898 234.794 233.652 239.567 225.385C244.34 217.118 247.438 207.992 248.684 198.528ZM91.7465 237.921C87.5011 230.55 84.2248 222.641 82.0137 214.389L271.218 163.692C273.429 171.944 274.546 180.431 274.555 188.937C274.559 193.237 274.281 197.542 273.717 201.824C272.038 214.575 267.864 226.871 261.433 238.01C255.003 249.148 246.441 258.911 236.237 266.741C226.033 274.57 214.387 280.313 201.964 283.642C189.541 286.971 176.584 287.82 163.832 286.141C151.08 284.463 138.784 280.289 127.646 273.858C116.508 267.427 106.745 258.865 98.9153 248.662C96.2863 245.236 93.8926 241.647 91.7465 237.921Z" fill="#D9FF37"/>
</svg>
