<svg width="184" height="95" viewBox="0 0 184 95" fill="none" xmlns="http://www.w3.org/2000/svg">
<path d="M183.03 2.01119C168.564 -0.191972 158.82 0.972181 146.475 8.87399C135.326 16.0098 126.026 28.6533 117.677 38.7772C107.34 51.3116 83.6932 70.1236 66.9974 58.9503C54.0337 50.2745 54.5518 30.622 70.8595 26.4444C77.1464 24.8339 84.1201 30.4333 84.6253 36.8274C85.1709 43.7335 78.9487 50.8187 74.3239 55.1633C61.9034 66.8314 44.5447 58.9198 30.1812 64.0831C16.7618 68.9071 10.8958 79.567 5.96193 92.2466C5.53931 93.3327 3.51497 88.9073 2.9078 87.8589C0.681952 84.0156 0.901432 86.1664 2.58439 89.0723C3.66676 90.9412 4.98358 95.485 6.89001 92.9632C8.26543 91.1439 11.9885 88.7563 14.0297 87.5742" stroke="#DF8E1D" stroke-width="1.5" stroke-linecap="round"/>
</svg>
